<?xml version="1.0" encoding="UTF-8"?>
<svg id="Layer_1" data-name="Layer 1" xmlns="http://www.w3.org/2000/svg" viewBox="0 0 607.61 659.56">
  <defs>
    <style>
      .cls-1 {
        fill: #fff;
        stroke-width: 0px;
      }
    </style>
  </defs>
  <g>
    <path class="cls-1" d="M155.79,121.68c6.91.45,16.31-.82,24.79-4.98,10.64-5.22,14.12-13.11,10.48-20.52-3.37-6.87-9.93-8.66-23.56-7.15-17.59,1.95-31.05-1.3-37.46-14.37-7.27-14.81-.43-32.2,19.23-41.85,9.83-4.82,18.16-6.24,24.06-6.13l2.5,15.31c-4.09-.16-11.68.38-20.16,4.55-10.5,5.15-12.31,13.06-9.73,18.31,3.44,7,10.27,7.66,24.71,6.42,18.66-1.81,30.24,2.37,36.65,15.43,7.14,14.54,2.31,32.62-21.12,44.12-9.56,4.69-20.85,6.89-27.28,6.37l-3.1-15.52Z"/>
    <path class="cls-1" d="M270.96.32l18.45-.32,1.47,85.64,41.54-.71.27,15.45-59.99,1.03-1.74-101.09Z"/>
    <path class="cls-1" d="M444.62,136.02c-4.89.29-14.58-1.55-25.68-6.48-29.34-13.03-39-39.32-26.51-67.42,13.52-30.43,42.79-39.42,71.03-26.88,11.1,4.93,18.02,10.8,20.65,14.1l-9.67,11.79c-3.54-3.87-8.84-8.19-16.51-11.6-18.78-8.34-37.59-2.58-47.46,19.62-9.01,20.29-2.87,38.61,17.42,47.62,6.86,3.04,14.59,4.84,19.89,4.73l-3.17,14.52Z"/>
  </g>
  <g>
    <path class="cls-1" d="M4,308.92l37.56-9.55-35.25-5.45.9-5.87,46.37,7.17-1.07,6.96-41.48,10.55,36.4,22.53-1.06,6.89L0,334.97l.9-5.87,35.25,5.45-32.96-20.39.81-5.25Z"/>
    <path class="cls-1" d="M17.15,406.95l-2.57-18.8-13.63-2.93-.91-6.63,48.88,11.09.91,6.63-44.09,23.91-.91-6.63,12.32-6.65ZM20.52,389.35l2.04,14.9,19.08-10.22-21.12-4.68Z"/>
    <path class="cls-1" d="M60.64,464.93c.94-3.1,1.13-7.18-.3-10.84-1.85-4.76-5.42-6.7-9.09-5.27-2.25.88-3.55,2.86-4.21,6.3l-1.8,9.44c-1.3,6.73-3.81,10-8.37,11.77-6.24,2.43-13.67.06-17.28-9.19-1.73-4.44-1.85-8.76-1.54-11.76l6.49-2.53c-1.03,3.07-1.57,7.57.21,12.14,2.05,5.27,6.18,6.93,9.59,5.6,2.31-.9,3.83-3.27,4.58-7.26l1.83-9.38c1.13-6.22,3.71-9.29,8.08-11,5.59-2.18,12.92-.66,16.78,9.24,1.48,3.79,1.73,7.47,1.28,10.31l-6.24,2.43Z"/>
    <path class="cls-1" d="M88.53,513.46c.27-3.23-.4-7.25-2.57-10.54-2.81-4.26-6.71-5.41-10-3.25-2.02,1.33-2.87,3.54-2.79,7.04l.22,9.6c.14,6.85-1.62,10.57-5.72,13.27-5.59,3.68-13.36,2.93-18.83-5.36-2.62-3.97-3.65-8.17-3.98-11.18l5.82-3.83c-.36,3.21.06,7.73,2.75,11.82,3.12,4.72,7.5,5.47,10.55,3.46,2.08-1.37,3.06-4,2.95-8.06l-.18-9.55c-.2-6.31,1.68-9.86,5.6-12.44,5.01-3.3,12.5-3.36,18.35,5.51,2.24,3.4,3.26,6.94,3.42,9.81l-5.59,3.68Z"/>
    <path class="cls-1" d="M110.85,575.32l-13.78-13.04-12.47,6.25-4.86-4.6,45.07-21.94,4.86,4.6-19.41,46.23-4.86-4.6,5.45-12.89ZM102.45,559.5l10.93,10.34,8.47-19.91-19.4,9.57Z"/>
    <path class="cls-1" d="M191.45,598.73c-1.89-3.2-5.19-6.69-9.63-9.07-9.43-5.05-19.95-1.76-24.86,7.43-4.68,8.76-2.29,19.51,6.65,24.3,8.82,4.72,17.8,1.54,21.79-5.94.26-.49.79-1.61.95-2.07l-14.66-7.85,2.54-4.75,19.96,10.68c-.44,1.56-1.43,3.85-2.41,5.68-5.95,11.14-18.28,16.2-31.05,9.36-11.92-6.38-15.65-20.35-9.24-32.34,6.47-12.11,20.51-16.41,33.1-9.67,4.56,2.44,8,5.53,9.95,8.46l-3.09,5.78Z"/>
    <path class="cls-1" d="M221.51,650.38l10.89-45.63,24.57,5.85-1.31,5.5-18.79-4.47-3.45,14.43,17.45,4.15-1.31,5.5-17.45-4.15-3.51,14.7,18.79,4.47-1.31,5.5-24.57-5.85Z"/>
    <path class="cls-1" d="M338,630.94l-.41-.36c-2.37-2.14-4.74-4.77-5.24-7.91-.88-5.52,2.91-10.73,9.32-11.73,6.75-1.06,11.21,3.27,12.03,8.44.91,5.72-2.81,9.17-7.28,12.25l10.87,9.53,9.12-14.29,1.26,7.97-6.24,9.99,10.79,9.48-7.16,1.13-6.52-5.89c-3.2,4.48-7.68,8.82-13.61,9.76-10.02,1.58-15.67-5.01-16.67-11.28-1.38-8.72,4.09-13.43,9.72-17.11ZM354.41,645.82l-12.48-11.31c-4.68,3.11-8.74,6.54-7.82,12.34.61,3.82,4.33,7.91,9.99,7.02,4.09-.64,7.65-4.21,10.32-8.05ZM342.45,628.14c3.55-2.3,6.27-4.55,5.77-7.68-.39-2.45-2.45-4.85-5.65-4.35-3.27.52-5.04,3.03-4.57,5.96.33,2.11,2.47,4.15,4.12,5.71l.34.37Z"/>
    <path class="cls-1" d="M452.02,622.87l-24.52-40.01,21.52-13.21,2.96,4.82-16.46,10.11,7.75,12.65,15.29-9.39,2.96,4.82-15.29,9.39,7.9,12.89,16.47-10.11,2.96,4.82-21.52,13.21Z"/>
    <path class="cls-1" d="M488.75,554.45l24.19,23.43-4.13,4.26-29.89-28.95-5.73-1.03-.35-.34,4.99-5.15,45.1,6.21-26.37-25.54,4.13-4.26,33.71,32.64-4.13,4.26-41.52-5.53Z"/>
    <path class="cls-1" d="M561.4,518.37l-40.78-23.22,12.52-21.94,4.92,2.8-9.57,16.78,12.89,7.34,8.89-15.58,4.92,2.8-8.89,15.58,13.13,7.48,9.58-16.78,4.92,2.8-12.51,21.94Z"/>
    <path class="cls-1" d="M545.8,443.57l3.91-13.3c2.47-8.41,8.87-12.78,16.81-10.44,6.49,1.91,9.07,7.06,8.79,12.66,4.09-4.62,13.13-6.99,24.28-5.51l-1.73,5.89c-11.79-1.24-21.06,2.14-22.79,8.03l-1.38,4.7,18.8,5.54-1.67,5.69-45.01-13.26ZM555.14,431.87l-2.24,7.61,15.36,4.52,2.24-7.61c1.38-4.7-.28-9.07-5.18-10.52-4.9-1.44-8.8,1.29-10.18,5.99Z"/>
    <path class="cls-1" d="M568.96,349.68c-2.01,3.13-3.63,7.64-3.75,12.68-.25,10.69,7.42,18.61,17.84,18.86,9.93.24,18.45-6.73,18.7-16.87.24-10-6.64-16.59-15.13-16.8-.55-.01-1.8.03-2.28.08l-.4,16.62-5.38-.13.54-22.63c1.59-.31,4.08-.45,6.15-.4,12.62.31,22.7,9.04,22.35,23.53-.32,13.52-11.11,23.13-24.7,22.8-13.73-.33-23.9-10.94-23.56-25.21.12-5.17,1.33-9.63,3.06-12.7l6.55.16Z"/>
    <path class="cls-1" d="M579.83,297.83l-22.04,20.97-1.5-6.59,17.1-15.94-22.33-7-1.52-6.66,29.04,9.43,20.18-4.61,1.32,5.79-20.25,4.63Z"/>
  </g>
  <g>
    <path class="cls-1" d="M304.2,201.96c2.87,6.19,5.98,12.27,9.32,18.21,11.65,20.73,26.16,39.84,43.13,56.82,16.45,16.45,34.91,30.59,54.88,42.04,6.72,3.85,13.61,7.4,20.65,10.64-7.57,3.51-14.97,7.37-22.15,11.59-19.16,11.21-36.93,24.94-52.81,40.83l-.47.47c-14.84,14.92-27.88,31.53-38.75,49.37-5.12,8.4-9.74,17.04-13.85,25.89-4.17-9-8.86-17.79-14.07-26.31-10.86-17.8-23.89-34.36-38.74-49.23l-.19-.18c-15.35-15.35-32.49-28.71-50.93-39.72-7.78-4.65-15.81-8.89-24.03-12.7,7.66-3.52,15.14-7.42,22.42-11.67,19.18-11.19,36.96-24.9,52.88-40.78l.15-.15.09-.09c16.88-16.88,31.33-35.89,42.94-56.47,3.42-6.05,6.6-12.25,9.52-18.56M304.19,162.34c-5.21,17.7-12.45,34.92-21.71,51.3-10.79,19.14-24.34,37.15-40.65,53.46-.08.08-.17.17-.25.25-15.32,15.28-32.16,28.15-50.02,38.57-17.51,10.22-36,18.12-55.02,23.68l-.04.05c19.59,5.77,38.6,14.02,56.54,24.74,17.2,10.26,33.41,22.8,48.21,37.6l.19.19c14.28,14.31,26.54,30,36.68,46.62,11.36,18.61,20.07,38.39,26.01,58.71,5.89-20.17,14.54-39.81,25.82-58.3,10.15-16.67,22.43-32.42,36.72-46.78.15-.15.29-.29.44-.44,15.31-15.31,32.13-28.2,49.98-38.64,17.42-10.22,35.84-18.12,54.78-23.7l-.04-.05c-18.42-5.38-36.34-12.96-53.35-22.71-18.58-10.65-36.07-23.92-51.94-39.8-16.4-16.4-30-34.51-40.83-53.78-9.17-16.3-16.35-33.4-21.53-50.98h0Z"/>
    <g>
      <path class="cls-1" d="M448.56,184.05c-1.91,2.96-3.84,6.04-5.75,9.21-12.78,21.18-21.01,40.06-24.65,56.46-4.05-6.15-9.24-12.75-15.89-19.4-6.66-6.66-13.27-11.86-19.43-15.91,22.6-5.04,46.61-18.01,65.73-30.36M480.88,151.71s-68.09,57.88-116.33,57.88c-3.49,0-6.88-.3-10.13-.95,7.41,2.13,24.99,8.72,42.9,26.64,17.91,17.91,24.5,35.48,26.63,42.9-9.64-48.16,56.93-126.46,56.93-126.46h0ZM350.74,207.73c1.2.35,2.43.65,3.68.9-2.35-.68-3.68-.9-3.68-.9h0ZM423.95,278.17c.25,1.25.55,2.47.9,3.68,0,0-.23-1.33-.9-3.68h0Z"/>
      <path class="cls-1" d="M155.05,185.05c19.12,12.35,43.13,25.32,65.73,30.36-6.16,4.05-12.77,9.25-19.43,15.91s-11.84,13.25-15.89,19.4c-3.64-16.4-11.88-35.28-24.65-56.46-1.91-3.17-3.84-6.25-5.75-9.21M122.74,152.71s66.57,78.31,56.93,126.46c2.13-7.42,8.72-24.99,26.63-42.9,17.91-17.91,35.49-24.5,42.9-26.64-3.25.65-6.64.95-10.13.95-48.24,0-116.33-57.88-116.33-57.88h0ZM252.88,208.73s-1.33.23-3.68.9c1.25-.25,2.47-.55,3.68-.9h0ZM179.67,279.17c-.68,2.35-.9,3.68-.9,3.68.35-1.21.65-2.43.9-3.68h0Z"/>
      <path class="cls-1" d="M418.15,409.83c3.64,16.4,11.88,35.28,24.65,56.46,1.91,3.17,3.84,6.25,5.75,9.21-19.12-12.34-43.13-25.32-65.73-30.36,6.16-4.05,12.77-9.25,19.43-15.91,6.65-6.65,11.84-13.25,15.89-19.4M424.85,377.71c-.35,1.21-.65,2.43-.9,3.68.68-2.35.9-3.68.9-3.68h0ZM423.95,381.39c-2.13,7.42-8.72,24.99-26.63,42.9-17.91,17.91-35.49,24.5-42.9,26.64,3.25-.65,6.64-.95,10.13-.95,48.24,0,116.33,57.88,116.33,57.88,0,0-66.57-78.31-56.93-126.46h0ZM354.41,450.92c-1.25.25-2.47.55-3.68.9,0,0,1.33-.23,3.68-.9h0Z"/>
      <path class="cls-1" d="M185.46,408.83c4.05,6.15,9.24,12.75,15.89,19.4,6.66,6.66,13.27,11.86,19.43,15.91-22.6,5.04-46.61,18.01-65.73,30.36,1.91-2.96,3.84-6.04,5.75-9.21,12.78-21.18,21.01-40.06,24.65-56.46M178.76,376.71s.23,1.33.9,3.68c-.25-1.25-.55-2.47-.9-3.68h0ZM179.67,380.39c9.64,48.16-56.93,126.46-56.93,126.46,0,0,68.09-57.89,116.33-57.88,3.49,0,6.88.3,10.13.95-7.41-2.13-24.99-8.72-42.9-26.64-17.91-17.91-24.5-35.48-26.63-42.9h0ZM249.2,449.92c2.35.68,3.68.9,3.68.9-1.2-.35-2.43-.65-3.68-.9h0Z"/>
    </g>
  </g>
</svg>