<?xml version="1.0" encoding="UTF-8"?>
<svg id="Layer_1" data-name="Layer 1" xmlns="http://www.w3.org/2000/svg" viewBox="0 0 618.44 670.81">
  <defs>
    <style>
      .cls-1 {
        font-family: MyriadConceptRoman-SemiboldCond, 'Myriad Variable Concept';
        font-size: 70px;
        font-variation-settings: 'wght' 600, 'wdth' 70;
      }

      .cls-1, .cls-2, .cls-3 {
        fill: #000;
      }

      .cls-1, .cls-3 {
        font-weight: 600;
      }

      .cls-2 {
        stroke-width: 0px;
      }

      .cls-3 {
        font-family: MyriadPro-Semibold, 'Myriad Pro';
        font-size: 120px;
      }
    </style>
  </defs>
  <text class="cls-3" transform="translate(195.91 126.75) rotate(-20.35)"><tspan x="0" y="0">S</tspan></text>
  <text class="cls-3" transform="translate(278.36 100.93) rotate(-.93) skewX(-.02)"><tspan x="0" y="0">L</tspan></text>
  <text class="cls-3" transform="translate(357.24 101.99) rotate(18.41)"><tspan x="0" y="0">C</tspan></text>
  <text class="cls-1" transform="translate(21.93 422.85) rotate(71.72)"><tspan x="0" y="0">M</tspan></text>
  <text class="cls-1" transform="translate(46.34 486.45) rotate(59.73) skewX(-.05)"><tspan x="0" y="0">A</tspan></text>
  <text class="cls-1" transform="translate(75.39 531.93) rotate(49.84) skewX(-.02)"><tspan x="0" y="0">S</tspan></text>
  <text class="cls-1" transform="translate(107.99 567.81) rotate(40.57) skewX(.03)"><tspan x="0" y="0">S</tspan></text>
  <text class="cls-1" transform="translate(146.44 598.44) rotate(30.68) skewX(.05)"><tspan x="0" y="0">A</tspan></text>
  <text class="cls-1" transform="translate(193.15 623.89) rotate(20.36)"><tspan x="0" y="0">G</tspan></text>
  <text class="cls-1" transform="translate(245.13 640.8) rotate(10.33) skewX(-.06)"><tspan x="0" y="0">E</tspan></text>
  <text class="cls-1" transform="translate(290.67 647.31) rotate(2.98) skewX(-.03)"><tspan x="0" y="0"> </tspan></text>
  <text class="cls-1" transform="translate(322.7 648.35) rotate(-5.46) skewX(.06)"><tspan x="0" y="0">&amp;</tspan></text>
  <text class="cls-1" transform="translate(379.04 640.45) rotate(-14.05) skewX(.03)"><tspan x="0" y="0"> </tspan></text>
  <text class="cls-1" transform="translate(408.77 632.19) rotate(-21.5) skewX(-.02)"><tspan x="0" y="0">E</tspan></text>
  <text class="cls-1" transform="translate(454.08 612.5) rotate(-31.8) skewX(-.05)"><tspan x="0" y="0">N</tspan></text>
  <text class="cls-1" transform="translate(501.67 580.13) rotate(-42.05) skewX(-.01)"><tspan x="0" y="0">E</tspan></text>
  <text class="cls-1" transform="translate(536.76 546.16) rotate(-51.83) skewX(.04)"><tspan x="0" y="0">R</tspan></text>
  <text class="cls-1" transform="translate(568.69 502.12) rotate(-62.37) skewX(.04)"><tspan x="0" y="0">G</tspan></text>
  <text class="cls-1" transform="translate(592.14 452.51) rotate(-72.59) skewX(-.02)"><tspan x="0" y="0">Y</tspan></text>
  <g>
    <path class="cls-2" d="M311.89,231.17c2.98,6.73,6.27,13.31,9.88,19.71,10.34,18.4,23.22,35.37,38.29,50.44,14.6,14.6,31,27.16,48.72,37.32,7.09,4.06,14.39,7.75,21.86,11.04-7.93,3.52-15.68,7.5-23.19,11.91-17.01,9.95-32.78,22.15-46.88,36.25l-.16.16-.25.25c-13.18,13.25-24.76,28-34.41,43.84-5.22,8.57-9.87,17.43-13.9,26.52-4.08-9.23-8.79-18.21-14.09-26.89-9.64-15.8-21.21-30.5-34.38-43.7l-.17-.17c-13.63-13.63-28.84-25.49-45.22-35.26-8.04-4.81-16.34-9.11-24.86-12.89,8.03-3.53,15.86-7.52,23.43-11.95,17.02-9.93,32.81-22.11,46.93-36.19l.05-.05.17-.17c14.99-14.99,27.82-31.86,38.12-50.13,3.67-6.5,7.03-13.18,10.05-20.02M311.88,200c-4.66,15.83-11.13,31.23-19.42,45.89-9.66,17.12-21.78,33.23-36.36,47.82-.07.07-.15.15-.22.22-13.71,13.67-28.77,25.18-44.74,34.51-15.66,9.14-32.2,16.21-49.22,21.18h-.04c17.53,5.16,34.53,12.59,50.58,22.18,15.38,9.18,29.89,20.4,43.13,33.64l.17.17c12.77,12.8,23.74,26.84,32.81,41.7,10.17,16.65,17.96,34.34,23.26,52.52,5.27-18.05,13.01-35.61,23.09-52.15,9.08-14.91,20.06-29,32.85-41.85.13-.13.26-.26.39-.39,13.7-13.7,28.74-25.23,44.71-34.57,15.58-9.14,32.06-16.25,49-21.25h-.04c-16.48-4.81-32.51-11.59-47.72-20.31-16.62-9.53-32.26-21.4-46.46-35.6-14.67-14.67-26.84-30.87-36.52-48.11-8.2-14.58-14.62-29.88-19.26-45.6h0Z"/>
    <path class="cls-2" d="M198.36,230.61c-3.21,0-5.84,2.63-5.84,5.84h0c0,.73.13,1.42.38,2.04h0c.26.69.65,1.32,1.13,1.86,0,0,0,0,0,0,.12.14.25.26.38.38,0,0,0,0,0,0l37.53,37.53c.6.63,1.34,1.13,2.17,1.43.63.24,1.32.38,2.04.38h0c3.2,0,5.83-2.63,5.83-5.83h0c0-.74-.13-1.42-.38-2.05-.29-.79-.75-1.5-1.34-2.08l-37.79-37.79h0s0,0,0,0,0,0,0,0c-.58-.58-1.28-1.05-2.07-1.34h0c-.63-.24-1.32-.38-2.04-.38h0Z"/>
    <path class="cls-2" d="M198.36,230.61c-3.21,0-5.84,2.63-5.84,5.84h0c0,.73.13,1.42.38,2.04h0c.26.69.65,1.32,1.13,1.86,0,0,0,0,0,0,.12.14.25.26.38.38,0,0,0,0,0,0l37.53,37.53c.6.63,1.34,1.13,2.17,1.43.63.24,1.32.38,2.04.38h0c3.2,0,5.83-2.63,5.83-5.83h0c0-.74-.13-1.42-.38-2.05-.29-.79-.75-1.5-1.34-2.08l-37.79-37.79h0s0,0,0,0,0,0,0,0c-.58-.58-1.28-1.05-2.07-1.34h0c-.63-.24-1.32-.38-2.04-.38h0Z"/>
    <path class="cls-2" d="M425.85,229.69c-.73,0-1.42.13-2.04.38h0c-.79.29-1.49.75-2.07,1.34,0,0,0,0,0,0s0,0,0,0h0l-37.79,37.79c-.58.58-1.05,1.29-1.34,2.08-.24.64-.38,1.32-.38,2.04h0c0,3.21,2.63,5.84,5.83,5.84h0c.73,0,1.42-.13,2.04-.38.82-.3,1.57-.81,2.17-1.43l37.53-37.53s0,0,0,0c.13-.11.25-.24.38-.38,0,0,0,0,0,0,.48-.54.87-1.17,1.13-1.85h0c.24-.64.38-1.33.38-2.04h0c0-3.22-2.63-5.84-5.84-5.84h0Z"/>
    <path class="cls-2" d="M218.24,417.58c-.73,0-1.42.13-2.04.38h0c-.79.29-1.49.75-2.07,1.34,0,0,0,0,0,0s0,0,0,0h0l-37.79,37.79c-.58.58-1.05,1.29-1.34,2.08-.24.64-.38,1.32-.38,2.04h0c0,3.21,2.63,5.84,5.83,5.84h0c.73,0,1.42-.13,2.04-.38.82-.3,1.57-.81,2.17-1.43l37.53-37.53s0,0,0,0c.13-.11.25-.24.38-.38,0,0,0,0,0,0,.48-.54.87-1.17,1.13-1.85h0c.24-.64.38-1.33.38-2.04h0c0-3.22-2.63-5.84-5.84-5.84h0Z"/>
    <path class="cls-2" d="M388.04,416.67c-3.21,0-5.84,2.63-5.84,5.84h0c0,.73.13,1.42.38,2.04h0c.26.69.65,1.32,1.13,1.86,0,0,0,0,0,0,.12.14.25.26.38.38,0,0,0,0,0,0l37.53,37.53c.6.63,1.34,1.13,2.17,1.43.63.24,1.32.38,2.04.38h0c3.2,0,5.83-2.63,5.83-5.83h0c0-.74-.13-1.42-.38-2.05-.29-.79-.75-1.5-1.34-2.08l-37.79-37.79h0s0,0,0,0,0,0,0,0c-.58-.58-1.28-1.05-2.07-1.34h0c-.63-.24-1.32-.38-2.04-.38h0Z"/>
  </g>
</svg>