<?xml version="1.0" encoding="UTF-8"?>
<svg id="Layer_1" data-name="Layer 1" xmlns="http://www.w3.org/2000/svg" viewBox="0 0 601.01 598.83">
  <defs>
    <style>
      .cls-1 {
        fill: #d4af37;
        stroke-width: 0px;
      }
    </style>
  </defs>
  <g>
    <g>
      <g>
        <rect class="cls-1" x="474.45" y="52.99" width="6" height="15" rx="3" ry="3" transform="translate(125.5 -267.77) rotate(35.79)"/>
        <rect class="cls-1" x="451.06" y="74.43" width="6" height="37" rx="3" ry="3" transform="translate(140.06 -247.97) rotate(35.79)"/>
      </g>
      <g>
        <rect class="cls-1" x="590.6" y="234.94" width="6" height="15" rx="3" ry="3" transform="translate(714.55 -387.25) rotate(78.66)"/>
        <rect class="cls-1" x="551.38" y="231.8" width="6" height="37" rx="3" ry="3" transform="translate(690.76 -342.48) rotate(78.66)"/>
      </g>
      <g>
        <rect class="cls-1" x="549.15" y="132.34" width="6" height="15" rx="3" ry="3" transform="translate(366.05 -398.48) rotate(56.72)"/>
        <rect class="cls-1" x="515.71" y="143.29" width="6" height="37" rx="3" ry="3" transform="translate(369.31 -360.62) rotate(56.72)"/>
      </g>
      <rect class="cls-1" x="508.02" y="86.09" width="6" height="37" rx="3" ry="3" transform="translate(239.52 -340.8) rotate(47.07)"/>
      <rect class="cls-1" x="564.21" y="175.47" width="6" height="37" rx="3" ry="3" transform="translate(532.19 -404.47) rotate(67.77)"/>
    </g>
    <g>
      <g>
        <rect class="cls-1" x="120.56" y="52.99" width="6" height="15" rx="3" ry="3" transform="translate(259.17 37.3) rotate(144.21)"/>
        <rect class="cls-1" x="143.95" y="74.43" width="6" height="37" rx="3" ry="3" transform="translate(320.5 82.39) rotate(144.21)"/>
      </g>
      <g>
        <rect class="cls-1" x="4.41" y="234.94" width="6" height="15" rx="3" ry="3" transform="translate(246.57 282.85) rotate(101.34)"/>
        <rect class="cls-1" x="43.63" y="231.8" width="6" height="37" rx="3" ry="3" transform="translate(301.22 253.81) rotate(101.34)"/>
      </g>
      <g>
        <rect class="cls-1" x="45.86" y="132.34" width="6" height="15" rx="3" ry="3" transform="translate(192.58 175.73) rotate(123.28)"/>
        <rect class="cls-1" x="79.3" y="143.29" width="6" height="37" rx="3" ry="3" transform="translate(262.72 181.77) rotate(123.28)"/>
      </g>
      <rect class="cls-1" x="86.99" y="86.09" width="6" height="37" rx="3" ry="3" transform="translate(227.86 109.94) rotate(132.93)"/>
      <rect class="cls-1" x="30.8" y="175.47" width="6" height="37" rx="3" ry="3" transform="translate(226.14 236.06) rotate(112.23)"/>
    </g>
    <g>
      <path class="cls-1" d="M5.02,346.61l33.27-20.99-35.72,5.79-.96-5.94,46.98-7.62,1.13,7.05-36.75,23.19,42.14,10.33,1.12,6.98-46.98,7.62-.96-5.94,35.72-5.79-38.16-9.34-.86-5.32Z"/>
      <path class="cls-1" d="M42.41,424.14l-7.7-17.65-14.12.88-2.71-6.22,50.81-2.58,2.71,6.22-36.48,35.43-2.71-6.22,10.21-9.87ZM40.86,406.04l6.1,13.99,15.82-15.21-21.92,1.22Z"/>
      <path class="cls-1" d="M92.94,458.31c.2-3.28-.56-7.35-2.82-10.63-2.94-4.27-6.92-5.35-10.21-3.09-2.02,1.39-2.84,3.65-2.69,7.2l.42,9.74c.28,6.94-1.43,10.76-5.53,13.57-5.59,3.85-13.49,3.25-19.21-5.06-2.74-3.98-3.87-8.21-4.27-11.25l5.83-4.01c-.3,3.27.21,7.84,3.04,11.93,3.26,4.73,7.72,5.4,10.77,3.3,2.08-1.43,3.03-4.12,2.83-8.23l-.38-9.68c-.33-6.4,1.5-10.04,5.42-12.74,5.02-3.45,12.61-3.66,18.73,5.22,2.34,3.4,3.45,6.98,3.67,9.88l-5.59,3.85Z"/>
      <path class="cls-1" d="M122.26,490.87c-.35-3.27-1.78-7.15-4.56-10.01-3.61-3.71-7.72-4.12-10.58-1.33-1.76,1.71-2.19,4.08-1.44,7.55l2.05,9.53c1.44,6.8.39,10.85-3.17,14.31-4.87,4.73-12.75,5.47-19.78-1.76-3.37-3.46-5.19-7.45-6.09-10.38l5.07-4.93c.25,3.27,1.53,7.69,4.99,11.26,4,4.11,8.51,4.03,11.17,1.44,1.81-1.76,2.29-4.57,1.41-8.59l-2-9.48c-1.4-6.26-.21-10.15,3.21-13.47,4.37-4.25,11.81-5.73,19.33,2,2.88,2.96,4.57,6.3,5.27,9.13l-4.87,4.73Z"/>
      <path class="cls-1" d="M144.42,540.6l-15.77-11.04-11.58,8.13-5.56-3.9,41.95-28.72,5.56,3.9-12.6,49.28-5.56-3.9,3.55-13.75ZM133.65,525.96l12.5,8.75,5.55-21.24-18.04,12.49Z"/>
      <path class="cls-1" d="M216.31,547.67c-2.25-3.03-5.95-6.19-10.69-8.11-10.06-4.08-20.32.38-24.29,10.17-3.78,9.34-.22,19.93,9.32,23.79,9.41,3.81,18.12-.36,21.35-8.34.21-.52.62-1.71.74-2.19l-15.64-6.34,2.05-5.06,21.28,8.62c-.28,1.62-1.03,4.04-1.82,5.98-4.81,11.87-16.7,18.31-30.33,12.79-12.72-5.15-17.97-18.84-12.8-31.62,5.23-12.91,18.93-18.76,32.36-13.32,4.87,1.97,8.66,4.72,10.95,7.46l-2.5,6.16Z"/>
      <path class="cls-1" d="M237.61,593.56l8.05-46.91,25.25,4.31-.97,5.66-19.32-3.3-2.55,14.83,17.94,3.06-.97,5.66-17.94-3.06-2.59,15.11,19.32,3.3-.97,5.66-25.25-4.31Z"/>
      <path class="cls-1" d="M327.95,569.71l-.4-.37c-2.35-2.22-4.71-4.94-5.15-8.13-.77-5.62,3.17-10.82,9.69-11.71,6.87-.94,11.3,3.54,12.02,8.81.8,5.83-3.04,9.25-7.64,12.28l10.83,9.9,9.55-14.31,1.12,8.11-6.54,10.01,10.75,9.84-7.28,1-6.49-6.11c-3.34,4.48-7.97,8.79-14.01,9.62-10.19,1.39-15.79-5.4-16.67-11.78-1.22-8.88,4.42-13.53,10.21-17.15ZM344.28,585.14l-12.43-11.73c-4.81,3.06-9,6.46-8.19,12.35.54,3.88,4.23,8.11,9.98,7.33,4.16-.57,7.84-4.11,10.63-7.95ZM332.52,566.96c3.65-2.26,6.45-4.48,6.01-7.67-.34-2.5-2.38-4.97-5.64-4.53-3.33.46-5.17,2.97-4.76,5.95.3,2.15,2.42,4.26,4.06,5.88l.33.38Z"/>
      <path class="cls-1" d="M417.37,576.09l-20.46-42.98,23.13-11.03,2.47,5.18-17.69,8.44,6.47,13.59,16.43-7.84,2.47,5.18-16.43,7.84,6.59,13.84,17.69-8.44,2.47,5.18-23.13,11.03Z"/>
      <path class="cls-1" d="M450.83,518.74l20.8,27.1-4.77,3.67-25.7-33.48-5.59-1.88-.3-.39,5.77-4.44,44.32,12.91-22.67-29.54,4.77-3.67,28.98,37.76-4.77,3.67-40.84-11.7Z"/>
      <path class="cls-1" d="M519.11,504.25l-36.21-30.89,16.63-19.48,4.37,3.72-12.72,14.91,11.45,9.77,11.81-13.84,4.37,3.73-11.81,13.84,11.66,9.95,12.72-14.91,4.37,3.73-16.63,19.48Z"/>
      <path class="cls-1" d="M511.01,437.59l6.97-12.23c4.4-7.72,11.74-10.56,19.04-6.41,5.96,3.39,7.32,9.07,5.74,14.54,5.12-3.61,14.6-3.85,25.27.2l-3.08,5.41c-11.36-3.96-21.3-2.77-24.39,2.64l-2.46,4.32,17.28,9.83-2.98,5.23-41.38-23.53ZM522.96,428.21l-3.98,6.99,14.12,8.03,3.98-6.99c2.46-4.32,1.84-9.02-2.67-11.58-4.5-2.56-8.99-.76-11.45,3.55Z"/>
      <path class="cls-1" d="M552.49,363.05c-2.81,2.51-5.63,6.48-7.12,11.37-3.16,10.38,2.19,20.21,12.3,23.29,9.64,2.94,19.86-1.55,22.86-11.39,2.96-9.71-1.97-18.02-10.21-20.53-.54-.16-1.76-.46-2.25-.54l-4.92,16.14-5.22-1.59,6.69-21.96c1.64.14,4.11.67,6.12,1.28,12.25,3.74,19.72,15.02,15.44,29.08-4,13.12-17.16,19.57-30.35,15.55-13.32-4.07-20.37-17.19-16.15-31.05,1.53-5.02,3.93-9.05,6.45-11.57l6.36,1.94Z"/>
      <path class="cls-1" d="M575.83,329.06l-27.8,13.35.6-6.83,21.47-10.04-19.39-13.73.6-6.9,25.11,18.18,20.92,1.85-.52,6-20.99-1.86Z"/>
    </g>
    <g>
      <path class="cls-1" d="M195.82,89.41c5.37,1.16,12.62,1.16,19.41-1.23,10.08-3.54,14.09-10.93,11.39-18.63-2.51-7.13-8.02-9.77-19.71-10.12-14-.04-23.97-3.78-27.75-14.54-4.18-11.89,2.57-24.18,17.4-29.39,7.81-2.75,14.11-2.92,18.18-2.19l.11,8.99c-2.97-.48-8.86-.96-15.76,1.47-10.41,3.66-12.19,11.28-10.36,16.49,2.51,7.13,8.38,9.01,20.34,9.38,14.66.44,23.41,4.36,27.35,15.57,4.14,11.77-1,25.03-19,31.35-7.36,2.59-16.15,3.26-21.18,1.98l-.41-9.14Z"/>
      <path class="cls-1" d="M274.52.21l10.44-.21,1.43,72.11,34.55-.69.17,8.76-44.99.89L274.52.21Z"/>
      <path class="cls-1" d="M401.18,97.86c-4.24.7-12.14.27-21.54-2.64-21.78-6.73-33.93-25.55-26.1-50.89,7.47-24.19,28.93-35.52,52.9-28.12,9.63,2.97,15.07,6.92,17.28,9.11l-4.92,7.4c-3.22-3-8.18-6.04-14.6-8.03-18.12-5.6-33.73,2.27-40,22.56-5.84,18.92,1.29,34.44,20.1,40.24,6.08,1.88,12.66,2.53,17.27,1.82l-.38,8.55Z"/>
    </g>
  </g>
  <g>
    <path class="cls-1" d="M472.36,242.92c-2.76-4.25-7.02-5.28-11.82-4.77-4.21.46-7.09,2.84-8.87,6.47-1.76,3.59-3.33,5.25-7.12,1.77-2.83-2.6-6.69-2.5-10.41-1.33-4.02,1.27-6.12,4.41-7.98,7.82-1.03,1.9-1.69,3.33-4.37,1.33-7.44-5.57-14.44-3.99-19.28,3.94-.87,1.42-1.83,2.8-2.53,4.3-1.19,2.52-2.2,2.94-4.75,1.03-7.12-5.33-14.23-3.61-18.86,4.2-3.32,5.58-6.59,11.19-9.78,16.84-1.22,2.16-2.78,3.4-5.3,4.03-9.83,2.48-19.59,5.24-29.38,7.88-9.97,2.68-17.6,8.45-22.81,17.37-2.18,3.74-4.4,7.45-6.46,11.26-1.46,2.69-2.68,3.2-4.32.15-1.81-3.38-3.87-6.61-5.71-9.97-5.5-10.06-13.76-16.39-24.93-19.16-9.19-2.28-18.26-5.1-27.46-7.34-3.08-.75-4.91-2.3-6.37-4.94-3.22-5.82-6.53-11.6-10.01-17.27-3.59-5.85-10.71-8.36-15.89-4.41-5.51,4.19-7.06,1.31-8.96-2.98-.47-1.06-1.16-2.03-1.84-2.97-4.05-5.62-11.74-7.09-17.14-2.69-3.07,2.5-4.08,1.63-5.78-1.27-5.14-8.77-11.27-10.12-19.79-4.42-2,1.34-2.85.9-3.85-.89-.89-1.6-1.8-3.21-2.94-4.62-3.13-3.88-8.75-5.34-13.62-3.7-4.55,1.53-7.47,5.95-7.45,11.66-.32,2.61,1,5.11,2.43,7.58,11.75,20.32,23.69,40.53,35.16,61,4.58,8.16,10.8,14.08,18.85,18.65,24.32,13.81,48.48,27.88,72.71,41.84,5.62,3.24,9.95,7.65,13.18,13.31,9,15.76,18.11,31.44,27.21,47.14,3.32,5.73,5.29,5.76,8.57.12,8.94-15.41,17.92-30.79,26.69-46.29,3.64-6.43,8.53-11.29,14.95-14.96,24.28-13.87,48.42-27.98,72.7-41.85,7.45-4.25,13.26-9.83,17.33-17.43,4.08-7.63,8.61-15.02,12.93-22.52,7.74-13.4,15.5-26.8,23.21-40.22,2.6-4.55,2.74-9.25-.14-13.69ZM430.75,257.39c.92-1.59,1.75-3.25,2.9-4.66,1.98-2.43,4.68-2.5,7.26-1.25,2.58,1.25,3.25,3.62,2.69,6.36-.06.32-.14.67-.3.95-9.79,16.83-19.53,33.69-29.43,50.45-1.47,2.49-4.25,3.68-7.05,4.43-16.53,4.46-33.06,8.91-49.61,13.33-.58.16-1.25.02-2.31.02,1.48-4.74,4.66-7.04,8.83-8.19,9.61-2.66,19.2-5.44,28.89-7.8,5.93-1.44,9.98-4.64,12.96-9.94,8.24-14.65,16.75-29.15,25.17-43.7ZM401.26,272.64c2.51-4.29,4.92-8.65,7.62-12.82,1.43-2.21,3.69-3.44,6.46-2.48,2.6.91,3.87,2.96,4.24,5.9-.27.73-.49,1.72-.97,2.57-3.92,6.92-7.9,13.81-11.84,20.72-1.01,1.78-1.78,2.36-3.63.51-6.48-6.49-6.57-6.41-1.88-14.4ZM382.3,269.84c1.98-3.21,5.01-3.95,8.17-2.01,3.25,1.99,3.17,4.89,1.72,8.26-3.42,7.95-11.19,6.11-16.95,8.77-.31-.44-.61-.88-.91-1.32,2.65-4.57,5.2-9.2,7.97-13.7ZM210.53,267.72c3.2-1.9,6.18-.94,8.12,2.24,2.75,4.49,5.31,9.11,7.95,13.68-.33.34-.65.69-.98,1.04-5.99-2.21-13.61-.89-17.01-8.73-1.47-3.4-1.32-6.32,1.92-8.23ZM187.57,257.09c2.44.15,4.1,1.89,5.4,4.13,3.31,5.74,6.51,11.54,9.96,17.18,1.48,2.43,1.23,3.92-1.37,5.02-.3.12-.57.33-.83.53q-5.66,4.25-9.21-1.88c-3.14-5.45-6.39-10.84-9.28-16.42-2.09-4.03.61-8.38,5.33-8.56ZM157.89,253.35c2.38-3.98,7.73-3.56,10.45,1.06,6.93,11.74,13.59,23.63,20.51,35.37,12.78,21.69,7.45,17.85,30.89,24.26,5.92,1.62,11.88,3.14,17.76,4.89,3.95,1.18,7.13,3.41,8.64,8.72-16.51-4.42-31.97-8.81-47.58-12.6-7.17-1.74-12.04-5.32-15.6-11.82-7.75-14.14-16.03-27.98-24.1-41.94-1.46-2.52-2.67-5.08-.97-7.94ZM267.52,380.42c-12.88-10.46-28.07-17.17-42.14-25.68-13.82-8.35-27.89-16.29-41.91-24.3-5.36-3.06-9.51-7.2-12.58-12.52-12.22-21.2-24.47-42.38-36.67-63.58-2.55-4.44-2.08-7.65,1.35-9.44,4.37-2.26,6.84.25,8.86,3.74,11.14,19.33,22.45,38.55,33.34,58.02,4.09,7.31,9.53,11.91,17.75,13.96,18.38,4.59,36.65,9.66,54.96,14.52,1.74.46,3.64,1.55,5.09-.27,1.48-1.86.38-3.71-.46-5.58-4.43-9.9-11.3-16.34-22.52-18.28-8.48-1.46-16.74-4.28-25.04-6.68-4.82-1.39-7.16-5.24-6.41-9.85.67-4.18,4.62-7.44,9.33-7.3,7.07,1.86,14.63,3.82,22.17,5.84,11.08,2.96,22.13,6.06,33.24,8.89,9.21,2.35,16.26,7.36,20.92,15.7,2.77,4.94,5.57,9.86,8.5,14.7,1.2,1.96,1.11,3.58-.02,5.51-7.95,13.67-15.82,27.39-23.77,41.06-.85,1.47-1.45,3.61-3.99,1.54ZM325.5,391.43c-7.55,13.09-15.2,26.14-22.65,39.29-1.83,3.22-2.83,3.54-4.78.08-7.45-13.16-15.05-26.23-22.71-39.27-1.43-2.44-1.51-4.41-.05-6.89,7.66-13.03,15.22-26.12,22.69-39.27,1.81-3.19,2.92-3.48,4.85-.08,7.53,13.3,15.24,26.5,22.86,39.76.56.98.92,2.09,1.38,3.16-.57,1.16-1.01,2.22-1.59,3.22ZM466.78,254.1c-9.77,17.04-20.3,33.69-29.22,51.16-7.62,14.92-18.49,25.27-33.21,33.04-20.9,11.02-41.05,23.43-61.54,35.23-3.19,1.84-6.37,3.71-8.91,6.37-2.09,2.19-3.21,1.44-4.47-.76-7.95-13.86-15.94-27.71-23.96-41.53-1.02-1.76-1.24-3.37,0-5.06.29-.41.51-.86.76-1.3,13.83-24.14,12.9-25.69,41.55-32.7,13.72-3.35,27.28-7.35,40.96-10.89,6.06-1.57,11.31,2.63,11.14,9.06-.38,4.06-2.89,6.68-7.28,7.83-9.81,2.57-19.53,5.49-29.39,7.85-10.28,2.46-14.41,10.65-18.3,18.99-1.5,3.21.79,5.03,4.78,3.98,12.39-3.24,24.75-6.58,37.11-9.9,6.74-1.81,13.44-3.83,20.23-5.41,7.02-1.63,11.69-5.8,15.18-11.92,11.29-19.82,22.76-39.54,34.13-59.31,1.56-2.72,3.33-5.13,6.91-4.74,4.58.48,6.28,5.21,3.53,10.01Z"/>
    <path class="cls-1" d="M342.04,239.4c-17.02-1.39-31.94-13.57-36.78-30.01-1.08-3.67-1.77-7.43-1.96-11.27-.1-1.87-.93-3.41-2.9-3.38-1.96.04-2.76,1.59-2.83,3.47-.03.66-.04,1.33-.12,1.99-2.63,22.03-17.58,37.02-39.21,39.22-2.18.22-4.27.64-4.29,3.13-.03,2.81,2.27,3.24,4.6,3.34,6.82.31,13.04,2.54,18.75,6.16,12.41,7.85,18.79,19.38,20.2,33.82.2,2.02.04,4.42,2.74,4.54,3.09.14,2.92-2.44,3.15-4.63.39-3.8.93-7.61,2.3-11.21,6.48-16.91,18.52-26.78,36.73-28.66,2.35-.24,4.27-.68,4.63-3.4-.64-2.81-2.74-2.92-5.01-3.11ZM325.02,244.07c-10.12,4.81-17.64,12.25-22.67,22.26-.76,1.49-1.72,4.18-3.45.65-5.33-10.85-13.56-18.72-25.35-23.99,4.5-2.92,8.4-5.14,11.94-7.82,5.65-4.27,9.87-9.79,13.03-16.14.77-1.56,1.79-4.12,3.47-.66,5.28,10.93,13.71,18.58,24.32,23.6.34,1.52-.65,1.8-1.29,2.1Z"/>
  </g>
</svg>